<svg version="1" xmlns="http://www.w3.org/2000/svg" width="1365.333" height="1365.333" viewBox="0 0 1024.000000 1024.000000"><path d="M721.5 324.4c-13.8 6.5-27 27.7-38 61-5.5 16.8-11.3 38.1-13 47.8-.3 1.7-.8 3.4-1 3.8-.2.4-.7 2.2-1 4.1-.3 1.9-1.5 7.9-2.6 13.4s-2.1 11.1-2.4 12.5c-2.3 13.4-4.5 27.5-5 32-.4 3-.9 6.3-1.1 7.4-.2 1-.6 4.4-.9 7.5-.3 3.1-.8 6.9-1 8.6-.2 1.6-.7 6.4-1.1 10.5-1.6 17.6-1.5 17.1-6.2 20.3-6.4 4.3-12.4 5.9-15 4.1-5.5-3.8-6.1-21.2-1.7-50.4.2-1.4.6-4.8 1-7.5.3-2.8.9-8.2 1.4-12 .5-3.9.8-10.5.7-14.7-.1-7-.3-7.9-3-10.7-3-3.2-7.9-5.1-12.9-5.1-3.8 0-8.3 2.5-12.4 6.8-3.7 3.9-18.1 25.4-27.9 41.4-8.5 14-8.8 13.2-3.5-10.8 3.6-16.7 4.2-27 1.8-30.8-3.6-5.5-11.3-7.9-18-5.7-7.6 2.5-17.4 15.2-33.7 43.8-4.1 7.2-7.9 12.9-8.4 12.6-.4-.3-.5-2.6-.2-5.2.7-4.7.8-5.4 3-19.9 2-12.8 2.1-27.6.1-29.5-2.1-2.2-7.3-3-14.7-2.5-5.4.4-6.5.8-8.8 3.7-3.5 4.1-8 18.9-11.3 37.1-.3 1.4-1.2 6.3-2 11-5.5 29.9-7.3 56.1-4.7 68.3 1.1 5.4 4.7 10.9 8.3 12.9 4.2 2.2 12 1.9 16.3-.7 4.3-2.6 4.2-2.4 20.7-36.5 4.9-10.2 11.3-23.5 14.3-29.6 7.2-15 10.2-17.6 8.4-7.3-.5 3-1.2 7.4-1.5 9.9-.3 2.5-.8 5.2-1 6-.2.8-.7 3.9-1 6.9-.4 3-.8 6.2-1 7.2-.6 2.8-1.8 15-1.9 18.9-.3 6.1 1.5 16.2 3.4 20 2.7 5.3 5.6 6.8 12.1 6.5 11.8-.5 14.6-3.8 24.3-28.5 20-51.3 21-53.8 22.3-53.3.7.3 1.1.8.9 1.2-1.1 1.7-2.1 22.1-2 38.6.2 14.6.6 19.4 2.2 25.3 3.8 14 8.4 17.7 20.8 16.8 4.2-.3 8-.8 8.5-1.2.5-.3 2.1-.8 3.6-1 3.5-.7 15.5-6.7 20.8-10.5l4.2-3 8.9 3.9c10.1 4.5 25.7 9.6 32.4 10.8 2.5.4 8.3.8 13 .8 7.6.1 9.2-.3 15.1-3.1 3.7-1.8 8.9-4.8 11.6-6.6 3-2 8.4-4.2 13.9-5.7 9.1-2.4 22.1-7.3 29.6-11.1 5-2.5 19.8-12.7 24.4-16.7l3.2-2.7-5.7-11.5-5.6-11.6-3 2.9c-6.8 6.6-23.9 18.2-35.8 24.4l-2.9 1.4 3.5-6.3c6-10.7 8.8-22.2 9.3-37.8.4-15.1-1-22.5-6-31.5-3.4-6.2-5-8.2-10.1-12-8.2-6.3-17.3-8-24.8-4.7-4.4 1.9-15.9 12.6-19.4 17.8-1.1 1.7-1.9 2.2-2.6 1.5-.7-.7.9-3.4 4.7-8.3 17-21.7 27.8-38.1 35.7-53.8 10.4-20.8 12.8-29.2 13.5-46 .7-19.9-2.7-33-10.3-40.1-5.9-5.4-10.3-7.1-19.3-7.5-6.3-.3-8.4.1-12.5 2zm11.1 25.4c5.9 3.8 5 19.3-2.2 41-2.5 7.9-3.3 9.8-8.7 21.2-3 6.5-14.2 27.2-18.2 33.8-.6.9-2.8 4.8-4.9 8.7-2.2 3.8-4.6 7.9-5.4 9l-1.4 2 .6-2c.3-1.1.7-3.1 1-4.5 4.5-25.9 15.8-73 19.5-81.5.5-1.1 1.7-4.3 2.6-7 2.7-7.5 7.3-16.4 10-19.1 2.4-2.4 5-3 7.1-1.6zm.6 141.6c6.4 3.2 8 6.7 7.9 17.9 0 5-.3 10.3-.6 11.7-.3 1.4-.8 4.1-1.1 6-2.1 15-10 30.8-17.7 35.4-3.5 2.1-5 2.4-11.1 2.1-3.9-.2-8.2-.6-9.6-.9-13.7-3-13.6-3-13.2-6.7.1-.3.4-3.7.8-7.5.3-3.8.8-7.8 1-8.9.2-1.1.7-4 1-6.5 1-8 3.4-18.8 5-22.7 7.5-18 23.7-26.6 37.6-19.9zM199.5 358.3c-11.7 1.3-21.4 7.5-25.9 16.6-3.2 6.3-6.5 16.7-7 22.1-.4 3.5-4.7 37.3-7.1 55.5-.2 1.6-.6 4.8-.9 7-.3 2.2-1.4 10.3-2.5 18-1.1 7.7-2.3 15.8-2.6 18-.3 2.2-.7 5.3-1 7-.3 1.6-.7 4.8-1 7-.3 2.2-.8 5.1-1 6.5-.3 1.4-.8 4.3-1.1 6.5-1.7 11.6-7.7 46.7-9.9 58-3.2 16.4-3.2 22.7-.2 28.5 1.6 3.4 3.4 5.1 7.2 7 4.9 2.5 5.3 2.5 33 2.8 30.6.4 33.4 0 39.8-5 4.5-3.6 8.8-10.6 8.9-14.7.1-3.6-2.3-7.6-6.2-9.9-2.4-1.5-5.6-1.8-23.9-1.7-18.7 0-21.1-.1-21.1-1.6 0-1.4 3.8-26.6 7.5-49.4.1-1.1.6-3.9.9-6.3.3-2.3 1.5-10.2 2.6-17.5 1.2-7.3 2.3-14.6 2.5-16.2 3.8-25.1 5.7-37.4 6-39.5.3-1.4.9-5.9 1.5-10.1.6-4.1 1.3-8.6 1.5-10 .3-1.3.8-4.4 1.1-6.9.3-2.5 1.2-8.6 1.9-13.5 1.7-11 2.2-14.5 3.1-21 .3-2.8.8-5.3 1.1-5.8.2-.4 9.8-.7 21.2-.7 12.8 0 22.1-.4 24.2-1.1 6.5-2.2 12.9-10.1 12.9-16.1 0-3.8-3.8-10.3-7.2-12.3-3-1.7-5.4-1.9-27.3-2-13.2 0-27.1.3-31 .8z"/><path d="M833.3 358.2c-5.3.9-8.4 2.9-11.6 7.6-5.3 7.8-4.1 14.7 3.4 20.1l4.2 3.1h40l-.6 4.2c-.9 6.3-3.7 24.9-4.2 27.8-.2 1.4-.7 4.3-1 6.5-.4 2.2-1.3 8-2 13-.8 4.9-1.7 10.8-2 13-.3 2.2-1 6.7-1.5 10-2.1 13.5-4.4 28.6-5.5 36.5-.4 3.1-1.6 11-2 13-.3 1.4-2.1 14-3 20-.5 3.3-1.7 11.1-2 13-.2.8-1.5 10.3-3 21s-3 19.7-3.2 20c-.2.2-10.4.5-22.6.5-24.4.1-25.4.3-31.5 6.6-1.7 1.8-3.5 4.7-3.8 6.5-.7 4 1.1 10.1 4 13.3 4.3 4.8 6.8 5.2 35 5.1 29.4-.1 34.2-.9 42.9-6.8 7.8-5.4 14.5-19.1 16.2-33.2.3-3 .8-6.6 1-8 .2-1.4.7-5 1-8 .4-3 1.3-10 2-15.5.8-5.5 1.7-12.6 2-15.8.4-3.2.8-6.6 1-7.6.2-1 .6-4.2 1-7.2.3-3 .8-6.5 1-7.9.2-1.4.6-4.5 1-7 .3-2.5.8-5.6 1-7 .2-1.4.7-4.5 1-7 .3-2.5.8-5.6 1-7 .2-1.4.7-4.5 1-7 .3-2.5 1-7 1.5-10s1.2-7.5 1.5-10c.3-2.5 1.2-8.3 2-13 .8-4.7 1.7-10.3 2.1-12.5.7-5 6.1-34.1 6.9-37.5 1.1-4.8 1.7-15.9 1.1-19.4-1.2-6.5-7-11.4-15.6-13.2-4.6-1-54.3-1.2-59.7-.2zM305.9 543.4c-7.2 1.5-11.6 4.9-15.4 11.7-2.7 4.8-3 6.3-3 13.9 0 10.5 2.5 15.7 9.5 19.8 4 2.4 5.5 2.7 13.5 2.6 8.1 0 9.5-.3 13.5-2.8 9.9-6.1 14.4-18.1 11.5-30.6-2.7-12.1-14.1-17.7-29.6-14.6zM365.3 543.1c-7.6 1.4-13.2 5.6-16.8 12.8-5.3 10.4-3 25.5 4.7 31.4 6.2 4.7 18.7 5.9 26.8 2.5 8.6-3.6 13.4-11 14.6-22.1 1.8-17.6-10.5-28-29.3-24.6zM423.5 543.2c-5.1 1-9.3 3.3-12.8 7-4.5 4.8-6 9.4-6.1 18.8-.1 7.3.2 9.1 2.4 12.8 3.5 6.2 9.5 9.5 17.9 9.9 17.5.8 27.9-8.9 28.3-26.3.2-6.7-.5-9.4-3.8-14.5-4-6.4-15.6-9.9-25.9-7.7z"/></svg>